<?xml version="1.0" standalone="no"?>
<svg xmlns:xlink="http://www.w3.org/1999/xlink" id="wave" style="transform:rotate(180deg); transition: 0.3s" viewBox="0 0 1440 450" version="1.1" xmlns="http://www.w3.org/2000/svg"><defs><linearGradient id="sw-gradient-0" x1="0" x2="0" y1="1" y2="0"><stop stop-color="rgba(6, 7, 14, 1)" offset="0%"/><stop stop-color="rgba(14, 103, 247, 1)" offset="100%"/></linearGradient></defs><path style="transform:translate(0, 0px); opacity:1" fill="url(#sw-gradient-0)" d="M0,0L30,30C60,60,120,120,180,157.5C240,195,300,210,360,217.5C420,225,480,225,540,187.5C600,150,660,75,720,37.5C780,0,840,0,900,0C960,0,1020,0,1080,37.5C1140,75,1200,150,1260,157.5C1320,165,1380,105,1440,90C1500,75,1560,105,1620,157.5C1680,210,1740,285,1800,262.5C1860,240,1920,120,1980,82.5C2040,45,2100,90,2160,142.5C2220,195,2280,255,2340,247.5C2400,240,2460,165,2520,172.5C2580,180,2640,270,2700,315C2760,360,2820,360,2880,315C2940,270,3000,180,3060,172.5C3120,165,3180,240,3240,240C3300,240,3360,165,3420,157.5C3480,150,3540,210,3600,262.5C3660,315,3720,360,3780,382.5C3840,405,3900,405,3960,337.5C4020,270,4080,135,4140,105C4200,75,4260,150,4290,187.5L4320,225L4320,450L4290,450C4260,450,4200,450,4140,450C4080,450,4020,450,3960,450C3900,450,3840,450,3780,450C3720,450,3660,450,3600,450C3540,450,3480,450,3420,450C3360,450,3300,450,3240,450C3180,450,3120,450,3060,450C3000,450,2940,450,2880,450C2820,450,2760,450,2700,450C2640,450,2580,450,2520,450C2460,450,2400,450,2340,450C2280,450,2220,450,2160,450C2100,450,2040,450,1980,450C1920,450,1860,450,1800,450C1740,450,1680,450,1620,450C1560,450,1500,450,1440,450C1380,450,1320,450,1260,450C1200,450,1140,450,1080,450C1020,450,960,450,900,450C840,450,780,450,720,450C660,450,600,450,540,450C480,450,420,450,360,450C300,450,240,450,180,450C120,450,60,450,30,450L0,450Z"/><defs><linearGradient id="sw-gradient-1" x1="0" x2="0" y1="1" y2="0"><stop stop-color="rgba(12.763, 14.908, 29.918, 1)" offset="0%"/><stop stop-color="rgba(14, 103, 247, 1)" offset="100%"/></linearGradient></defs><path style="transform:translate(0, 50px); opacity:0.9" fill="url(#sw-gradient-1)" d="M0,0L30,37.5C60,75,120,150,180,217.5C240,285,300,345,360,337.5C420,330,480,255,540,195C600,135,660,90,720,127.5C780,165,840,285,900,300C960,315,1020,225,1080,202.5C1140,180,1200,225,1260,210C1320,195,1380,120,1440,105C1500,90,1560,135,1620,187.5C1680,240,1740,300,1800,300C1860,300,1920,240,1980,232.5C2040,225,2100,270,2160,285C2220,300,2280,285,2340,247.5C2400,210,2460,150,2520,150C2580,150,2640,210,2700,247.5C2760,285,2820,300,2880,270C2940,240,3000,165,3060,142.5C3120,120,3180,150,3240,202.5C3300,255,3360,330,3420,322.5C3480,315,3540,225,3600,157.5C3660,90,3720,45,3780,82.5C3840,120,3900,240,3960,292.5C4020,345,4080,330,4140,307.5C4200,285,4260,255,4290,240L4320,225L4320,450L4290,450C4260,450,4200,450,4140,450C4080,450,4020,450,3960,450C3900,450,3840,450,3780,450C3720,450,3660,450,3600,450C3540,450,3480,450,3420,450C3360,450,3300,450,3240,450C3180,450,3120,450,3060,450C3000,450,2940,450,2880,450C2820,450,2760,450,2700,450C2640,450,2580,450,2520,450C2460,450,2400,450,2340,450C2280,450,2220,450,2160,450C2100,450,2040,450,1980,450C1920,450,1860,450,1800,450C1740,450,1680,450,1620,450C1560,450,1500,450,1440,450C1380,450,1320,450,1260,450C1200,450,1140,450,1080,450C1020,450,960,450,900,450C840,450,780,450,720,450C660,450,600,450,540,450C480,450,420,450,360,450C300,450,240,450,180,450C120,450,60,450,30,450L0,450Z"/></svg>