<!--?xml version="1.0" standalone="no"?-->
              <svg id="sw-js-blob-svg" viewBox="0 0 100 100" xmlns="http://www.w3.org/2000/svg" version="1.1">
                    <defs> 
                        <linearGradient id="sw-gradient" x1="0" x2="1" y1="1" y2="0">
                            <stop id="stop1" stop-color="rgba(0, 0, 0, 1)" offset="0%"></stop>
                            <stop id="stop2" stop-color="rgba(133.263, 11.333, 106.588, 1)" offset="100%"></stop>
                        </linearGradient>
                    </defs>
                <path fill="url(#sw-gradient)" d="M21.7,-24.7C28.6,-24.8,35,-19.1,35.7,-12.6C36.4,-6.2,31.3,1.2,28,8.4C24.7,15.7,23.2,22.8,18.9,26.2C14.5,29.5,7.3,29.1,-1.3,30.8C-9.8,32.6,-19.6,36.5,-25.9,33.8C-32.1,31,-34.9,21.6,-34.9,13.3C-34.8,5,-32,-2.2,-29.7,-9.8C-27.5,-17.3,-25.7,-25.2,-20.9,-25.8C-16,-26.3,-8,-19.6,-0.3,-19.2C7.4,-18.8,14.7,-24.6,21.7,-24.7Z" width="100%" height="100%" transform="translate(50 50)" stroke-width="0" style="transition: all 0.3s ease 0s;" stroke="url(#sw-gradient)"></path>
              </svg>